<?xml version="1.0" encoding="utf-8"?>
<!-- Generator: Adobe Illustrator 12.0.1, SVG Export Plug-In . SVG Version: 6.00 Build 51448)  -->
<!DOCTYPE svg PUBLIC "-//W3C//DTD SVG 1.1//EN" "http://www.w3.org/Graphics/SVG/1.1/DTD/svg11.dtd" [
	<!ENTITY ns_svg "http://www.w3.org/2000/svg">
	<!ENTITY ns_xlink "http://www.w3.org/1999/xlink">
]>
<svg  version="1.1" id="Layer_1" xmlns="&ns_svg;" xmlns:xlink="&ns_xlink;" width="366.386" height="160.132"
	 viewBox="0 0 366.386 160.132" overflow="visible" enable-background="new 0 0 366.386 160.132" xml:space="preserve">
<g>
	<path d="M347.948,69.96h-10.164v-0.966l1.344-0.168c1.555-0.168,1.723-0.63,1.303-1.932c-0.294-1.008-1.513-4.284-2.688-7.308
		h-8.525c-0.421,1.092-1.513,4.368-2.101,6.132c-0.798,2.436-0.42,2.982,1.47,3.15l1.261,0.126v0.966h-8.988v-0.966
		c2.73-0.294,3.066-0.546,4.536-4.284l8.063-20.748c-1.848-0.378-3.359-1.806-3.359-3.948c0-2.562,2.184-4.074,4.368-4.074
		c2.184,0,4.367,1.512,4.367,4.074c0,2.016-1.386,3.444-3.149,3.864l2.31,6.132c1.975,5.334,3.822,10.668,5.46,14.952
		c1.344,3.528,1.891,3.822,4.494,4.032V69.96z M329.763,57.99h7.434L333.5,47.658h-0.084L329.763,57.99z M332.072,40.014
		c0,1.47,0.966,2.688,2.395,2.688c1.428,0,2.394-1.218,2.394-2.688c0-1.428-0.966-2.646-2.394-2.646
		C333.038,37.368,332.072,38.586,332.072,40.014z"/>
</g>
<g>
	<path d="M320.819,83.019c0-1.683,0.227-2.956,0.68-3.822c0.452-0.866,1.12-1.299,2.003-1.299c0.782,0,1.399,0.351,1.85,1.053
		c0.546,0.848,0.819,2.204,0.819,4.068c0,1.672-0.226,2.942-0.676,3.811c-0.45,0.869-1.119,1.303-2.007,1.303
		c-0.782,0-1.423-0.383-1.922-1.148C321.068,86.218,320.819,84.896,320.819,83.019z M321.858,83.015
		c0,1.627,0.155,2.717,0.466,3.271c0.312,0.553,0.709,0.83,1.194,0.83c0.459,0,0.842-0.28,1.15-0.841s0.463-1.647,0.463-3.261
		c0-1.632-0.155-2.723-0.466-3.274c-0.312-0.552-0.714-0.827-1.208-0.827c-0.454,0-0.834,0.28-1.141,0.841
		C322.012,80.314,321.858,81.401,321.858,83.015z"/>
	<path d="M327.204,83.019c0-1.683,0.227-2.956,0.68-3.822c0.452-0.866,1.12-1.299,2.003-1.299c0.782,0,1.399,0.351,1.85,1.053
		c0.546,0.848,0.819,2.204,0.819,4.068c0,1.672-0.226,2.942-0.676,3.811c-0.45,0.869-1.119,1.303-2.007,1.303
		c-0.782,0-1.423-0.383-1.922-1.148C327.453,86.218,327.204,84.896,327.204,83.019z M328.243,83.015
		c0,1.627,0.155,2.717,0.466,3.271c0.312,0.553,0.709,0.83,1.194,0.83c0.459,0,0.842-0.28,1.15-0.841s0.463-1.647,0.463-3.261
		c0-1.632-0.155-2.723-0.466-3.274c-0.312-0.552-0.714-0.827-1.208-0.827c-0.454,0-0.834,0.28-1.141,0.841
		C328.396,80.314,328.243,81.401,328.243,83.015z"/>
	<path d="M339.847,84.444l1.094,0.336c-0.241,1.126-0.664,1.967-1.268,2.521c-0.604,0.554-1.339,0.831-2.205,0.831
		c-0.761,0-1.411-0.186-1.951-0.558c-0.54-0.371-0.981-0.968-1.326-1.788c-0.344-0.82-0.516-1.789-0.516-2.906
		c0-1.104,0.172-2.037,0.517-2.801c0.344-0.764,0.81-1.34,1.397-1.729c0.589-0.39,1.245-0.585,1.97-0.585
		c0.793,0,1.475,0.247,2.045,0.74c0.569,0.494,0.968,1.219,1.196,2.174l-1.07,0.305c-0.365-1.391-1.097-2.086-2.195-2.086
		c-0.547,0-1.021,0.141-1.422,0.421c-0.401,0.28-0.722,0.718-0.961,1.311c-0.24,0.593-0.359,1.343-0.359,2.251
		c0,1.373,0.241,2.402,0.725,3.09c0.483,0.686,1.127,1.029,1.93,1.029c0.593,0,1.104-0.211,1.535-0.634
		C339.412,85.943,339.7,85.303,339.847,84.444z"/>
	<path d="M341.874,85.335l1.063-0.109c0.082,0.637,0.267,1.111,0.556,1.423c0.288,0.312,0.623,0.468,1.005,0.468
		c0.478,0,0.889-0.22,1.234-0.66c0.345-0.439,0.518-1.04,0.518-1.802c0-0.716-0.167-1.271-0.501-1.665
		c-0.333-0.395-0.752-0.592-1.257-0.592c-0.304,0-0.589,0.086-0.854,0.257s-0.476,0.409-0.63,0.715l-0.953-0.15l0.797-5.149h4.078
		v1.18h-3.281l-0.433,2.689c0.487-0.418,1.004-0.627,1.551-0.627c0.688,0,1.284,0.293,1.792,0.879s0.762,1.376,0.762,2.37
		c0,0.981-0.254,1.821-0.762,2.521s-1.19,1.05-2.047,1.05c-0.71,0-1.311-0.247-1.8-0.742
		C342.222,86.896,341.942,86.21,341.874,85.335z"/>
</g>
<g>
	<path d="M193.784,68.994l1.344-0.168c1.555-0.168,1.723-0.63,1.303-1.932c-0.294-1.008-1.513-4.284-2.688-7.308h-8.525
		c-0.421,1.092-1.513,4.368-2.101,6.132c-0.798,2.436-0.42,2.982,1.47,3.15l1.261,0.126v0.966h-8.988v-0.966
		c2.73-0.294,3.066-0.546,4.536-4.284l8.651-22.302l0.967-0.378l2.981,7.98c1.975,5.334,3.822,10.668,5.46,14.952
		c1.344,3.528,1.891,3.822,4.494,4.032v0.966h-10.164V68.994z M185.763,57.99h7.434L189.5,47.658h-0.084L185.763,57.99z"/>
</g>
<g>
	<path d="M177.319,83.019c0-1.683,0.227-2.956,0.68-3.822c0.452-0.866,1.12-1.299,2.003-1.299c0.782,0,1.399,0.351,1.85,1.053
		c0.546,0.848,0.819,2.204,0.819,4.068c0,1.672-0.226,2.942-0.676,3.811c-0.45,0.869-1.119,1.303-2.007,1.303
		c-0.782,0-1.423-0.383-1.922-1.148C177.568,86.218,177.319,84.896,177.319,83.019z M178.358,83.015
		c0,1.627,0.155,2.717,0.466,3.271c0.312,0.553,0.709,0.83,1.194,0.83c0.459,0,0.842-0.28,1.15-0.841s0.463-1.647,0.463-3.261
		c0-1.632-0.155-2.723-0.466-3.274c-0.312-0.552-0.714-0.827-1.208-0.827c-0.454,0-0.834,0.28-1.141,0.841
		C178.512,80.314,178.358,81.401,178.358,83.015z"/>
	<path d="M183.704,83.019c0-1.683,0.227-2.956,0.68-3.822c0.452-0.866,1.12-1.299,2.003-1.299c0.782,0,1.399,0.351,1.85,1.053
		c0.546,0.848,0.819,2.204,0.819,4.068c0,1.672-0.226,2.942-0.676,3.811c-0.45,0.869-1.119,1.303-2.007,1.303
		c-0.782,0-1.423-0.383-1.922-1.148C183.953,86.218,183.704,84.896,183.704,83.019z M184.743,83.015
		c0,1.627,0.155,2.717,0.466,3.271c0.312,0.553,0.709,0.83,1.194,0.83c0.459,0,0.842-0.28,1.15-0.841s0.463-1.647,0.463-3.261
		c0-1.632-0.155-2.723-0.466-3.274c-0.312-0.552-0.714-0.827-1.208-0.827c-0.454,0-0.834,0.28-1.141,0.841
		C184.896,80.314,184.743,81.401,184.743,83.015z"/>
	<path d="M193.323,87.96v-2.398h-3.563v-1.125l3.75-6.5h0.828v6.5h1.117v1.125h-1.117v2.398H193.323z M193.323,84.437v-4.522
		l-2.571,4.522H193.323z"/>
	<path d="M200.278,87.96h-1.016v-7.844c-0.232,0.273-0.545,0.553-0.937,0.838s-0.751,0.501-1.079,0.646v-1.188
		c0.556-0.319,1.047-0.709,1.474-1.169c0.426-0.46,0.726-0.909,0.898-1.347h0.659V87.96z"/>
	<path d="M212.436,83.019c0-1.683,0.227-2.956,0.679-3.822c0.453-0.866,1.121-1.299,2.004-1.299c0.783,0,1.399,0.351,1.85,1.053
		c0.546,0.848,0.819,2.204,0.819,4.068c0,1.672-0.226,2.942-0.676,3.811c-0.45,0.869-1.119,1.303-2.007,1.303
		c-0.783,0-1.423-0.383-1.922-1.148C212.685,86.218,212.436,84.896,212.436,83.019z M213.475,83.015
		c0,1.627,0.155,2.717,0.466,3.271c0.312,0.553,0.709,0.83,1.194,0.83c0.459,0,0.842-0.28,1.15-0.841s0.463-1.647,0.463-3.261
		c0-1.632-0.155-2.723-0.466-3.274c-0.312-0.552-0.714-0.827-1.208-0.827c-0.454,0-0.834,0.28-1.141,0.841
		C213.628,80.314,213.475,81.401,213.475,83.015z"/>
	<path d="M218.82,85.312l1.008-0.164c0.21,1.313,0.741,1.969,1.594,1.969c0.46,0,0.859-0.194,1.197-0.584
		c0.337-0.39,0.506-0.895,0.506-1.514c0-0.584-0.155-1.053-0.466-1.408c-0.31-0.355-0.691-0.533-1.143-0.533
		c-0.191,0-0.429,0.046-0.712,0.137l0.117-1.082l0.157,0.014c0.498,0,0.902-0.152,1.213-0.457s0.466-0.711,0.466-1.221
		c0-0.468-0.13-0.844-0.39-1.129c-0.26-0.283-0.576-0.426-0.949-0.426c-0.387,0-0.714,0.149-0.98,0.447
		c-0.267,0.299-0.436,0.751-0.509,1.357l-1.008-0.219c0.128-0.858,0.415-1.506,0.861-1.944c0.447-0.438,0.987-0.657,1.62-0.657
		c0.666,0,1.231,0.246,1.696,0.738c0.465,0.491,0.697,1.111,0.697,1.857c0,0.456-0.1,0.859-0.298,1.21s-0.475,0.626-0.83,0.826
		c0.327,0.092,0.598,0.242,0.811,0.451c0.214,0.21,0.387,0.489,0.519,0.841c0.132,0.351,0.197,0.742,0.197,1.175
		c0,0.92-0.271,1.673-0.813,2.258s-1.19,0.878-1.946,0.878c-0.701,0-1.296-0.255-1.783-0.765S218.889,86.172,218.82,85.312z"/>
	<path d="M225.205,83.019c0-1.683,0.227-2.956,0.679-3.822c0.453-0.866,1.121-1.299,2.004-1.299c0.783,0,1.399,0.351,1.85,1.053
		c0.546,0.848,0.819,2.204,0.819,4.068c0,1.672-0.226,2.942-0.676,3.811c-0.45,0.869-1.119,1.303-2.007,1.303
		c-0.783,0-1.423-0.383-1.922-1.148C225.454,86.218,225.205,84.896,225.205,83.019z M226.244,83.015
		c0,1.627,0.155,2.717,0.466,3.271c0.312,0.553,0.709,0.83,1.194,0.83c0.459,0,0.842-0.28,1.15-0.841s0.463-1.647,0.463-3.261
		c0-1.632-0.155-2.723-0.466-3.274c-0.312-0.552-0.714-0.827-1.208-0.827c-0.454,0-0.834,0.28-1.141,0.841
		C226.397,80.314,226.244,81.401,226.244,83.015z"/>
	<path d="M231.113,87.96l3.153-10.023h1.184l3.358,10.023h-1.244l-0.954-3.039h-3.452l-0.89,3.039H231.113z M233.474,83.843h2.798
		l-0.854-2.775c-0.265-0.853-0.458-1.545-0.581-2.078c-0.106,0.643-0.256,1.28-0.449,1.914L233.474,83.843z"/>
</g>
<g>
	<path d="M207.969,141.96h-11.625l0.491-5.729c1.922-0.806,3.336-1.952,4.242-3.44s1.36-3.578,1.36-6.268
		c0-3.714-0.905-6.564-2.718-8.551c-1.811-1.986-4.091-2.98-6.839-2.98c-2.652,0-4.895,1.008-6.727,3.021s-2.748,4.755-2.748,8.223
		c0,2.731,0.468,4.909,1.405,6.534s2.35,2.778,4.238,3.461l0.513,5.729H178v-5.688h0.75c0.04,0.818,0.255,1.375,0.646,1.67
		c0.604,0.471,1.524,0.705,2.761,0.705h5.56v-1.434c-2.869-0.833-5.086-2.261-6.65-4.283c-1.564-2.021-2.347-4.406-2.347-7.152
		c0-3.443,1.274-6.347,3.823-8.711c2.55-2.363,5.998-3.545,10.345-3.545c2.665,0,5.115,0.502,7.351,1.506
		c2.234,1.005,3.957,2.471,5.167,4.396c1.21,1.927,1.814,4.045,1.814,6.354c0,2.828-0.83,5.291-2.489,7.389
		c-1.659,2.097-3.828,3.445-6.504,4.047l-0.164,1.434h5.626c1.274,0,2.16-0.188,2.659-0.563c0.498-0.376,0.789-0.979,0.872-1.812
		h0.75V141.96z"/>
</g>
<g>
	<path d="M29.969,141.96H18.344l0.491-5.729c1.922-0.806,3.336-1.952,4.243-3.44c0.906-1.488,1.36-3.578,1.36-6.268
		c0-3.714-0.906-6.564-2.717-8.551s-4.091-2.98-6.839-2.98c-2.652,0-4.895,1.008-6.727,3.021s-2.748,4.755-2.748,8.223
		c0,2.731,0.468,4.909,1.405,6.534s2.35,2.778,4.238,3.461l0.513,5.729H0v-5.688h0.75c0.04,0.818,0.255,1.375,0.645,1.67
		c0.604,0.471,1.525,0.705,2.761,0.705h5.56v-1.434c-2.869-0.833-5.086-2.261-6.65-4.283c-1.564-2.021-2.347-4.406-2.347-7.152
		c0-3.443,1.274-6.347,3.824-8.711c2.549-2.363,5.998-3.545,10.344-3.545c2.665,0,5.115,0.502,7.351,1.506
		c2.235,1.005,3.957,2.471,5.167,4.396c1.209,1.927,1.814,4.045,1.814,6.354c0,2.828-0.83,5.291-2.489,7.389
		c-1.659,2.097-3.828,3.445-6.504,4.047l-0.164,1.434h5.626c1.274,0,2.16-0.188,2.659-0.563s0.79-0.979,0.873-1.812h0.75V141.96z"/>
</g>
<g>
	<path d="M179.319,155.019c0-1.683,0.227-2.956,0.68-3.822c0.452-0.866,1.12-1.299,2.003-1.299c0.782,0,1.399,0.351,1.85,1.053
		c0.546,0.848,0.819,2.204,0.819,4.068c0,1.672-0.226,2.942-0.676,3.811c-0.45,0.869-1.119,1.303-2.007,1.303
		c-0.782,0-1.423-0.383-1.922-1.148C179.568,158.218,179.319,156.896,179.319,155.019z M180.358,155.015
		c0,1.627,0.155,2.717,0.466,3.271c0.312,0.553,0.709,0.83,1.194,0.83c0.459,0,0.842-0.28,1.15-0.841s0.463-1.647,0.463-3.261
		c0-1.632-0.155-2.723-0.466-3.274c-0.312-0.552-0.714-0.827-1.208-0.827c-0.454,0-0.834,0.28-1.141,0.841
		C180.512,152.314,180.358,153.401,180.358,155.015z"/>
	<path d="M185.704,157.312l1.008-0.164c0.21,1.313,0.741,1.969,1.594,1.969c0.461,0,0.859-0.194,1.197-0.584
		c0.337-0.39,0.506-0.895,0.506-1.514c0-0.584-0.155-1.053-0.466-1.408c-0.31-0.355-0.691-0.533-1.143-0.533
		c-0.191,0-0.429,0.046-0.712,0.137l0.117-1.082l0.157,0.014c0.498,0,0.902-0.152,1.213-0.457s0.466-0.711,0.466-1.221
		c0-0.468-0.13-0.844-0.39-1.129c-0.26-0.283-0.576-0.426-0.949-0.426c-0.388,0-0.714,0.149-0.98,0.447
		c-0.267,0.299-0.437,0.751-0.509,1.357l-1.008-0.219c0.128-0.858,0.415-1.506,0.861-1.944c0.447-0.438,0.987-0.657,1.621-0.657
		c0.665,0,1.23,0.246,1.695,0.738c0.465,0.491,0.697,1.111,0.697,1.857c0,0.456-0.1,0.859-0.298,1.21s-0.475,0.626-0.83,0.826
		c0.327,0.092,0.597,0.242,0.811,0.451c0.214,0.21,0.387,0.489,0.519,0.841c0.131,0.351,0.197,0.742,0.197,1.175
		c0,0.92-0.271,1.673-0.813,2.258c-0.542,0.585-1.191,0.878-1.946,0.878c-0.702,0-1.296-0.255-1.783-0.765
		S185.772,158.172,185.704,157.312z"/>
	<path d="M191.612,159.96l3.153-10.023h1.184l3.358,10.023h-1.244l-0.955-3.039h-3.451l-0.89,3.039H191.612z M193.973,155.843h2.798
		l-0.854-2.775c-0.265-0.853-0.458-1.545-0.581-2.078c-0.106,0.643-0.256,1.28-0.449,1.914L193.973,155.843z"/>
	<path d="M199.894,157.64l0.969-0.109c0.154,1.058,0.609,1.586,1.363,1.586c0.337,0,0.643-0.115,0.918-0.345
		c0.274-0.23,0.508-0.639,0.698-1.227c0.191-0.587,0.286-1.272,0.286-2.056v-0.246c-0.209,0.405-0.49,0.727-0.845,0.963
		c-0.354,0.237-0.716,0.355-1.084,0.355c-0.668,0-1.244-0.293-1.729-0.878c-0.483-0.586-0.726-1.387-0.726-2.403
		c0-1.048,0.251-1.873,0.754-2.478c0.503-0.604,1.113-0.905,1.833-0.905c0.509,0,0.984,0.169,1.426,0.506
		c0.441,0.338,0.783,0.834,1.024,1.49c0.24,0.656,0.361,1.603,0.361,2.838c0,1.376-0.13,2.444-0.389,3.206
		c-0.26,0.761-0.611,1.317-1.056,1.668c-0.443,0.351-0.94,0.526-1.491,0.526c-0.624,0-1.145-0.213-1.563-0.641
		C200.226,159.065,199.976,158.447,199.894,157.64z M204.019,153.218c0-0.716-0.159-1.278-0.477-1.689
		c-0.318-0.41-0.684-0.615-1.097-0.615c-0.431,0-0.815,0.219-1.154,0.656c-0.338,0.438-0.507,1.021-0.507,1.752
		c0,0.656,0.161,1.18,0.483,1.569s0.708,0.585,1.157,0.585c0.445,0,0.822-0.196,1.131-0.588
		C203.864,154.495,204.019,153.938,204.019,153.218z"/>
</g>
<g>
	<path d="M8.632,158.78v1.18h-5.43c-0.014-0.479,0.13-1.014,0.433-1.605c0.302-0.593,0.855-1.292,1.659-2.099
		c0.94-0.939,1.556-1.666,1.847-2.179c0.291-0.513,0.436-0.991,0.436-1.434c0-0.511-0.148-0.927-0.445-1.248
		s-0.663-0.482-1.098-0.482c-0.467,0-0.85,0.174-1.149,0.521c-0.299,0.347-0.449,0.846-0.449,1.494l-1.039-0.133
		c0.073-0.962,0.345-1.686,0.815-2.17c0.471-0.486,1.09-0.729,1.859-0.729c0.836,0,1.47,0.282,1.9,0.848s0.645,1.208,0.645,1.928
		c0,0.639-0.168,1.25-0.505,1.836s-0.977,1.366-1.919,2.342c-0.601,0.616-0.989,1.036-1.165,1.26
		c-0.175,0.223-0.317,0.446-0.427,0.67H8.632z"/>
	<path d="M13.509,159.96h-1.016v-7.844c-0.232,0.273-0.544,0.553-0.936,0.838c-0.392,0.285-0.751,0.501-1.08,0.646v-1.188
		c0.556-0.319,1.047-0.709,1.474-1.169c0.426-0.46,0.726-0.909,0.899-1.347h0.659V159.96z"/>
	<path d="M21.401,158.78v1.18h-5.43c-0.014-0.479,0.13-1.014,0.433-1.605c0.302-0.593,0.855-1.292,1.659-2.099
		c0.94-0.939,1.556-1.666,1.847-2.179c0.291-0.513,0.436-0.991,0.436-1.434c0-0.511-0.148-0.927-0.445-1.248
		s-0.663-0.482-1.098-0.482c-0.467,0-0.85,0.174-1.149,0.521c-0.299,0.347-0.449,0.846-0.449,1.494l-1.039-0.133
		c0.073-0.962,0.345-1.686,0.815-2.17c0.471-0.486,1.09-0.729,1.859-0.729c0.836,0,1.47,0.282,1.9,0.848s0.645,1.208,0.645,1.928
		c0,0.639-0.168,1.25-0.505,1.836s-0.977,1.366-1.919,2.342c-0.601,0.616-0.989,1.036-1.165,1.26
		c-0.175,0.223-0.317,0.446-0.427,0.67H21.401z"/>
	<path d="M27.7,152.39l-1.008,0.094c-0.095-0.512-0.236-0.877-0.422-1.095c-0.268-0.317-0.59-0.476-0.966-0.476
		c-0.585,0-1.055,0.364-1.409,1.093c-0.304,0.628-0.458,1.557-0.462,2.786c0.231-0.438,0.523-0.769,0.873-0.994
		c0.351-0.225,0.721-0.338,1.112-0.338c0.651,0,1.218,0.295,1.703,0.885c0.484,0.591,0.727,1.38,0.727,2.369
		c0,0.67-0.122,1.277-0.365,1.822c-0.244,0.544-0.557,0.946-0.939,1.206s-0.804,0.39-1.263,0.39c-0.829,0-1.512-0.374-2.049-1.121
		c-0.537-0.748-0.806-1.994-0.806-3.74c0-1.937,0.275-3.316,0.825-4.139c0.551-0.823,1.255-1.234,2.115-1.234
		c0.623,0,1.145,0.213,1.565,0.639S27.609,151.579,27.7,152.39z M23.591,156.712c0,0.724,0.17,1.306,0.51,1.745
		s0.735,0.659,1.184,0.659c0.395,0,0.748-0.207,1.058-0.621c0.311-0.415,0.466-0.984,0.466-1.709c0-0.71-0.154-1.261-0.463-1.652
		s-0.685-0.588-1.129-0.588c-0.436,0-0.815,0.194-1.14,0.584C23.753,155.52,23.591,156.047,23.591,156.712z"/>
</g>
<g>
	<path d="M2.418,11.736c0.384,1.128,1.608,3.792,4.152,3.792c1.824,0,2.976-1.224,2.976-3.096c0-2.04-1.56-2.88-3.096-3.624
		C5.658,8.424,2.418,7.296,2.418,4.416C2.418,2.04,4.218,0,7.362,0c0.672,0,1.488,0.144,1.992,0.312
		c0.312,0.096,0.648,0.216,0.912,0.264c0.096,0.84,0.24,1.8,0.432,3.24l-0.6,0.072C9.69,2.472,9.019,0.792,6.834,0.792
		c-1.704,0-2.592,1.248-2.592,2.664c0,1.776,1.272,2.568,3.096,3.384c1.584,0.696,4.104,1.68,4.104,4.656
		c0,2.784-2.28,4.824-5.328,4.824c-0.864,0-1.68-0.168-2.28-0.36s-1.032-0.384-1.32-0.504c-0.192-0.624-0.456-2.328-0.696-3.624
		L2.418,11.736z"/>
	<path d="M13.266,11.04c0-4.032,3.12-5.784,5.304-5.784c3.048,0,5.232,2.328,5.232,5.328c0,3.744-2.784,5.664-5.208,5.664
		C15.21,16.248,13.266,13.536,13.266,11.04z M21.618,11.112c0-2.664-1.152-5.136-3.336-5.136c-1.608,0-2.832,1.656-2.832,4.176
		c0,3.048,1.32,5.376,3.408,5.376C20.346,15.528,21.618,14.352,21.618,11.112z"/>
	<path d="M33.738,7.584c0-0.888-0.24-1.08-0.744-1.128l-1.152-0.144V5.808c1.104-0.048,2.856-0.288,3.768-0.432v8.4
		c0,0.96,0.192,1.032,0.696,1.056l1.056,0.048v0.528c-1.008,0.12-2.76,0.6-3.48,0.84l-0.144-0.144V14.4
		c-0.552,0.432-1.2,0.912-1.824,1.272c-0.696,0.408-1.296,0.576-1.896,0.576c-1.704,0-3-0.888-3-3.288V7.584
		c0-0.888-0.216-1.08-0.768-1.152l-0.744-0.12V5.808c0.72-0.048,2.472-0.288,3.384-0.432v6.744c0,2.232,1.032,2.76,2.112,2.76
		c0.84,0,1.752-0.384,2.736-1.224V7.584z"/>
	<path d="M42.042,13.8c0,1.344,0.12,1.464,1.992,1.608v0.552h-5.52v-0.552c1.536-0.144,1.656-0.264,1.656-1.608V8.256
		c0-1.44-0.048-1.464-1.632-1.656V6.168c1.128-0.24,2.304-0.528,3.504-0.96V7.68h0.048c0.552-0.936,1.728-2.424,2.88-2.424
		c0.72,0,1.296,0.648,1.296,1.128c0,0.408-0.264,0.96-0.768,1.176c-0.264,0.12-0.48,0.072-0.6-0.024
		c-0.336-0.288-0.6-0.504-1.032-0.504c-0.576,0-1.2,0.456-1.824,1.704V13.8z"/>
	<path d="M55.986,13.656c-0.984,1.488-2.496,2.592-3.864,2.592c-3.048,0-4.968-2.424-4.968-5.064c0-1.8,0.864-3.408,2.184-4.488
		c1.44-1.176,3.096-1.44,3.912-1.44c0.552,0,1.584,0.216,2.112,0.648c0.168,0.144,0.24,0.288,0.24,0.528
		c0,0.528-0.48,1.056-0.792,1.056c-0.096,0-0.192-0.024-0.36-0.168c-0.936-0.84-1.728-1.032-2.496-1.032
		c-1.176,0-2.88,1.056-2.88,3.816c0,3.624,2.568,4.584,3.744,4.584c1.056,0,1.584-0.24,2.856-1.344L55.986,13.656z"/>
	<path d="M65.394,13.896c-1.32,1.872-2.976,2.352-3.624,2.352c-3.048,0-4.872-2.28-4.872-5.064c0-3.216,2.256-5.928,5.136-5.928
		c1.872,0,3.432,1.728,3.432,3.336c0,0.744-0.072,0.792-0.504,0.888c-0.336,0.072-3.312,0.312-6.288,0.408
		c-0.072,3.576,2.184,4.824,3.912,4.824c0.792,0,1.512-0.288,2.472-1.152L65.394,13.896z M62.994,8.952
		c0.336,0,0.432-0.12,0.432-0.768c0-0.96-0.768-2.112-2.016-2.112c-1.152,0-2.4,1.176-2.592,2.952L62.994,8.952z"/>
</g>
<g>
	<path d="M191.931,16.128h-0.624L180.891,3.48h-0.048V9.6c0,2.52,0.096,3.816,0.191,4.56c0.12,0.84,0.769,1.176,2.353,1.248v0.552
		h-5.761v-0.552c1.32-0.048,1.944-0.408,2.064-1.248c0.096-0.744,0.192-2.04,0.192-4.56V4.392c0-1.728-0.024-2.112-0.456-2.664
		c-0.456-0.576-1.104-0.744-2.112-0.816V0.36h3.504l10.104,12.096h0.048V6.72c0-2.52-0.097-3.816-0.192-4.56
		c-0.12-0.84-0.768-1.176-2.352-1.248V0.36h5.76v0.552c-1.32,0.048-1.944,0.408-2.064,1.248c-0.096,0.744-0.191,2.04-0.191,4.56
		V16.128z"/>
	<path d="M197.69,3.84c0-2.616-0.191-2.784-2.112-2.928V0.36h10.417c0.023,0.408,0.144,2.16,0.264,3.504l-0.601,0.072
		c-0.239-1.2-0.504-1.824-0.863-2.208c-0.384-0.408-1.177-0.576-2.641-0.576h-1.728c-0.672,0-0.72,0.048-0.72,0.744v5.736h2.615
		c2.064,0,2.137-0.144,2.376-1.92h0.601v4.728h-0.601c-0.239-1.776-0.312-1.92-2.376-1.92h-2.615v3.96
		c0,2.616,0.191,2.784,2.495,2.928v0.552h-6.624v-0.552c1.921-0.144,2.112-0.312,2.112-2.928V3.84z"/>
	<path d="M214.682,0.36c2.856,0,5.16,0.576,6.696,2.016c1.2,1.128,2.088,2.88,2.088,5.088c0,5.928-4.536,8.496-10.176,8.496h-5.521
		v-0.552c2.064-0.144,2.257-0.312,2.257-2.928V3.84c0-2.616-0.192-2.784-2.064-2.928V0.36H214.682z M212.042,12.888
		c0,1.104,0.072,1.584,0.408,1.872c0.312,0.264,0.888,0.408,1.704,0.408c5.04,0,6.983-3.48,6.983-7.08
		c0-2.424-0.527-4.992-2.928-6.24c-0.936-0.504-2.304-0.792-4.224-0.792c-1.2,0-1.536,0.072-1.729,0.144
		c-0.144,0.048-0.216,0.192-0.216,0.672V12.888z"/>
</g>
<g>
	<path d="M335.931,16.128h-0.624L324.891,3.48h-0.048V9.6c0,2.52,0.096,3.816,0.191,4.56c0.12,0.84,0.769,1.176,2.353,1.248v0.552
		h-5.761v-0.552c1.32-0.048,1.944-0.408,2.064-1.248c0.096-0.744,0.192-2.04,0.192-4.56V4.392c0-1.728-0.024-2.112-0.456-2.664
		c-0.456-0.576-1.104-0.744-2.112-0.816V0.36h3.504l10.104,12.096h0.048V6.72c0-2.52-0.097-3.816-0.192-4.56
		c-0.12-0.84-0.768-1.176-2.352-1.248V0.36h5.76v0.552c-1.32,0.048-1.944,0.408-2.064,1.248c-0.096,0.744-0.191,2.04-0.191,4.56
		V16.128z"/>
	<path d="M341.69,3.84c0-2.616-0.191-2.784-2.112-2.928V0.36h10.417c0.023,0.408,0.144,2.16,0.264,3.504l-0.601,0.072
		c-0.239-1.2-0.504-1.824-0.863-2.208c-0.384-0.408-1.177-0.576-2.641-0.576h-1.728c-0.672,0-0.72,0.048-0.72,0.744v5.736h2.615
		c2.064,0,2.137-0.144,2.376-1.92h0.601v4.728h-0.601c-0.239-1.776-0.312-1.92-2.376-1.92h-2.615v3.96
		c0,2.616,0.191,2.784,2.495,2.928v0.552h-6.624v-0.552c1.921-0.144,2.112-0.312,2.112-2.928V3.84z"/>
	<path d="M365.258,4.296c-0.72-2.76-2.256-3.504-4.607-3.504c-4.32,0-6.24,3.264-6.24,7.032c0,4.632,2.376,7.704,6.264,7.704
		c2.688,0,3.937-1.296,5.112-3.816l0.6,0.072c-0.312,1.032-0.84,2.952-1.224,3.864c-0.672,0.168-2.832,0.672-4.512,0.672
		c-6.072,0-8.616-4.128-8.616-7.944c0-4.944,3.815-8.376,9.072-8.376c2.04,0,3.647,0.48,4.319,0.624
		c0.192,1.32,0.288,2.376,0.433,3.624L365.258,4.296z"/>
</g>
<g>
	<path d="M27.948,69.96H17.784v-0.966l1.344-0.168c1.554-0.168,1.722-0.63,1.302-1.932c-0.294-1.008-1.512-4.284-2.688-7.308H9.216
		c-0.42,1.092-1.512,4.368-2.1,6.132c-0.798,2.436-0.42,2.982,1.47,3.15l1.26,0.126v0.966H0.858v-0.966
		c2.73-0.294,3.066-0.546,4.536-4.284l8.064-20.748c-1.848-0.378-3.36-1.806-3.36-3.948c0-2.562,2.184-4.074,4.368-4.074
		s4.368,1.512,4.368,4.074c0,2.016-1.386,3.444-3.15,3.864l2.31,6.132c1.974,5.334,3.822,10.668,5.46,14.952
		c1.344,3.528,1.89,3.822,4.494,4.032V69.96z M9.762,57.99h7.434L13.5,47.658h-0.084L9.762,57.99z M12.072,40.014
		c0,1.47,0.966,2.688,2.394,2.688c1.428,0,2.394-1.218,2.394-2.688c0-1.428-0.966-2.646-2.394-2.646
		C13.039,37.368,12.072,38.586,12.072,40.014z"/>
</g>
<g>
	<path d="M6.132,86.78v1.18h-5.43c-0.014-0.479,0.13-1.014,0.433-1.605c0.302-0.593,0.855-1.292,1.659-2.099
		c0.94-0.939,1.556-1.666,1.847-2.179c0.291-0.513,0.436-0.991,0.436-1.434c0-0.511-0.148-0.927-0.445-1.248
		s-0.663-0.482-1.098-0.482c-0.467,0-0.85,0.174-1.149,0.521c-0.299,0.347-0.449,0.846-0.449,1.494l-1.039-0.133
		c0.073-0.962,0.345-1.686,0.815-2.17c0.471-0.486,1.09-0.729,1.859-0.729c0.836,0,1.47,0.282,1.9,0.848s0.645,1.208,0.645,1.928
		c0,0.639-0.168,1.25-0.505,1.836s-0.977,1.366-1.919,2.342c-0.601,0.616-0.989,1.036-1.165,1.26
		c-0.175,0.223-0.317,0.446-0.427,0.67H6.132z"/>
	<path d="M11.009,87.96H9.993v-7.844c-0.232,0.273-0.544,0.553-0.936,0.838c-0.392,0.285-0.751,0.501-1.08,0.646v-1.188
		c0.556-0.319,1.047-0.709,1.474-1.169c0.426-0.46,0.726-0.909,0.899-1.347h0.659V87.96z"/>
	<path d="M18.901,86.78v1.18h-5.43c-0.014-0.479,0.13-1.014,0.433-1.605c0.302-0.593,0.855-1.292,1.659-2.099
		c0.94-0.939,1.556-1.666,1.847-2.179c0.291-0.513,0.436-0.991,0.436-1.434c0-0.511-0.148-0.927-0.445-1.248
		s-0.663-0.482-1.098-0.482c-0.467,0-0.85,0.174-1.149,0.521c-0.299,0.347-0.449,0.846-0.449,1.494l-1.039-0.133
		c0.073-0.962,0.345-1.686,0.815-2.17c0.471-0.486,1.09-0.729,1.859-0.729c0.836,0,1.47,0.282,1.9,0.848s0.645,1.208,0.645,1.928
		c0,0.639-0.168,1.25-0.505,1.836s-0.977,1.366-1.919,2.342c-0.601,0.616-0.989,1.036-1.165,1.26
		c-0.175,0.223-0.317,0.446-0.427,0.67H18.901z"/>
	<path d="M20.364,87.96V77.937h3.084c0.625,0,1.119,0.097,1.484,0.291s0.664,0.497,0.896,0.908c0.232,0.41,0.349,0.865,0.349,1.363
		c0,0.461-0.1,0.876-0.3,1.246c-0.2,0.37-0.482,0.667-0.846,0.891c0.476,0.173,0.851,0.468,1.125,0.884
		c0.274,0.417,0.411,0.93,0.411,1.539c0,0.605-0.124,1.137-0.372,1.595c-0.249,0.457-0.58,0.789-0.994,0.996
		c-0.415,0.207-0.984,0.311-1.708,0.311H20.364z M21.45,82.155h1.78c0.465,0,0.796-0.032,0.993-0.096
		c0.283-0.097,0.501-0.258,0.654-0.484c0.153-0.226,0.229-0.533,0.229-0.922c0-0.361-0.07-0.662-0.209-0.902
		s-0.324-0.406-0.555-0.498c-0.23-0.091-0.645-0.137-1.242-0.137h-1.65V82.155z M21.45,86.78h2.048c0.452,0,0.786-0.041,1-0.123
		c0.311-0.118,0.547-0.313,0.709-0.584c0.162-0.271,0.243-0.612,0.243-1.022c0-0.378-0.078-0.698-0.233-0.96
		c-0.155-0.263-0.364-0.454-0.626-0.574c-0.263-0.121-0.675-0.182-1.236-0.182H21.45V86.78z"/>
</g>
<g>
	<path d="M353.469,141.96h-11.625l0.491-5.729c1.922-0.806,3.336-1.952,4.242-3.44s1.36-3.578,1.36-6.268
		c0-3.714-0.905-6.564-2.718-8.551c-1.811-1.986-4.091-2.98-6.839-2.98c-2.652,0-4.895,1.008-6.727,3.021s-2.748,4.755-2.748,8.223
		c0,2.731,0.468,4.909,1.405,6.534s2.35,2.778,4.238,3.461l0.513,5.729H323.5v-5.688h0.75c0.04,0.818,0.255,1.375,0.646,1.67
		c0.604,0.471,1.524,0.705,2.761,0.705h5.56v-1.434c-2.869-0.833-5.086-2.261-6.65-4.283c-1.564-2.021-2.347-4.406-2.347-7.152
		c0-3.443,1.274-6.347,3.823-8.711c2.55-2.363,5.998-3.545,10.345-3.545c2.665,0,5.115,0.502,7.351,1.506
		c2.234,1.005,3.957,2.471,5.167,4.396c1.21,1.927,1.814,4.045,1.814,6.354c0,2.828-0.83,5.291-2.489,7.389
		c-1.659,2.097-3.828,3.445-6.504,4.047l-0.164,1.434h5.626c1.274,0,2.16-0.188,2.659-0.563c0.498-0.376,0.789-0.979,0.872-1.812
		h0.75V141.96z"/>
</g>
<g>
	<path d="M324.819,155.019c0-1.683,0.227-2.956,0.68-3.822c0.452-0.866,1.12-1.299,2.003-1.299c0.782,0,1.399,0.351,1.85,1.053
		c0.546,0.848,0.819,2.204,0.819,4.068c0,1.672-0.226,2.942-0.676,3.811c-0.45,0.869-1.119,1.303-2.007,1.303
		c-0.782,0-1.423-0.383-1.922-1.148C325.068,158.218,324.819,156.896,324.819,155.019z M325.858,155.015
		c0,1.627,0.155,2.717,0.466,3.271c0.312,0.553,0.709,0.83,1.194,0.83c0.459,0,0.842-0.28,1.15-0.841s0.463-1.647,0.463-3.261
		c0-1.632-0.155-2.723-0.466-3.274c-0.312-0.552-0.714-0.827-1.208-0.827c-0.454,0-0.834,0.28-1.141,0.841
		C326.012,152.314,325.858,153.401,325.858,155.015z"/>
	<path d="M331.204,157.312l1.008-0.164c0.21,1.313,0.741,1.969,1.594,1.969c0.461,0,0.859-0.194,1.197-0.584
		c0.337-0.39,0.506-0.895,0.506-1.514c0-0.584-0.155-1.053-0.466-1.408c-0.31-0.355-0.691-0.533-1.143-0.533
		c-0.191,0-0.429,0.046-0.712,0.137l0.117-1.082l0.157,0.014c0.498,0,0.902-0.152,1.213-0.457s0.466-0.711,0.466-1.221
		c0-0.468-0.13-0.844-0.39-1.129c-0.26-0.283-0.576-0.426-0.949-0.426c-0.388,0-0.714,0.149-0.98,0.447
		c-0.267,0.299-0.437,0.751-0.509,1.357l-1.008-0.219c0.128-0.858,0.415-1.506,0.861-1.944c0.447-0.438,0.987-0.657,1.621-0.657
		c0.665,0,1.23,0.246,1.695,0.738c0.465,0.491,0.697,1.111,0.697,1.857c0,0.456-0.1,0.859-0.298,1.21s-0.475,0.626-0.83,0.826
		c0.327,0.092,0.597,0.242,0.811,0.451c0.214,0.21,0.387,0.489,0.519,0.841c0.131,0.351,0.197,0.742,0.197,1.175
		c0,0.92-0.271,1.673-0.813,2.258c-0.542,0.585-1.191,0.878-1.946,0.878c-0.702,0-1.296-0.255-1.783-0.765
		S331.272,158.172,331.204,157.312z"/>
	<path d="M337.112,159.96l3.153-10.023h1.184l3.358,10.023h-1.244l-0.955-3.039h-3.451l-0.89,3.039H337.112z M339.473,155.843h2.798
		l-0.854-2.775c-0.265-0.853-0.458-1.545-0.581-2.078c-0.106,0.643-0.256,1.28-0.449,1.914L339.473,155.843z"/>
	<path d="M345.394,157.64l0.969-0.109c0.154,1.058,0.609,1.586,1.363,1.586c0.337,0,0.643-0.115,0.918-0.345
		c0.274-0.23,0.508-0.639,0.698-1.227c0.191-0.587,0.286-1.272,0.286-2.056v-0.246c-0.209,0.405-0.49,0.727-0.845,0.963
		c-0.354,0.237-0.716,0.355-1.084,0.355c-0.668,0-1.244-0.293-1.729-0.878c-0.483-0.586-0.726-1.387-0.726-2.403
		c0-1.048,0.251-1.873,0.754-2.478c0.503-0.604,1.113-0.905,1.833-0.905c0.509,0,0.984,0.169,1.426,0.506
		c0.441,0.338,0.783,0.834,1.024,1.49c0.24,0.656,0.361,1.603,0.361,2.838c0,1.376-0.13,2.444-0.389,3.206
		c-0.26,0.761-0.611,1.317-1.056,1.668c-0.443,0.351-0.94,0.526-1.491,0.526c-0.624,0-1.145-0.213-1.563-0.641
		C345.726,159.065,345.476,158.447,345.394,157.64z M349.519,153.218c0-0.716-0.159-1.278-0.477-1.689
		c-0.318-0.41-0.684-0.615-1.097-0.615c-0.431,0-0.815,0.219-1.154,0.656c-0.338,0.438-0.507,1.021-0.507,1.752
		c0,0.656,0.161,1.18,0.483,1.569s0.708,0.585,1.157,0.585c0.445,0,0.822-0.196,1.131-0.588
		C349.364,154.495,349.519,153.938,349.519,153.218z"/>
</g>
<g>
	<path d="M217.466,60.456l0.145-1.296l0.912,0.24l-0.096,1.056H217.466z M218.378,61.416l0.145,1.056l-0.912,0.288l-0.145-1.344
		H218.378z M217.898,58.056l0.384-1.008l0.864,0.48l-0.288,0.768L217.898,58.056z M218.811,63.624l0.336,0.768l-0.864,0.48
		l-0.384-1.008L218.811,63.624z M218.954,55.896l0.672-0.912l0.721,0.672l-0.576,0.72L218.954,55.896z M219.771,65.544l0.527,0.672
		l-0.672,0.672l-0.672-0.864L219.771,65.544z M220.587,67.848l0.672-0.672l0.527,0.432l-0.48,0.816L220.587,67.848z M221.354,53.448
		l0.48,0.864l-0.529,0.384l-0.672-0.672L221.354,53.448z M222.458,52.772l1.2-0.48l0.24,0.912l-0.96,0.432L222.458,52.772z
		 M222.938,68.28l0.96,0.384l-0.24,0.96l-1.2-0.528L222.938,68.28z M225.003,68.936l1.055,0.144v0.912l-1.295-0.096L225.003,68.936z
		 M224.811,51.998l1.296-0.194l-0.049,0.969l-1.008,0.144L224.811,51.998z M227.019,51.804l1.296,0.194l-0.24,0.919l-1.056-0.144
		V51.804z M227.019,69.086l1.056-0.095l0.24,0.905l-1.296,0.095V69.086z M229.466,52.296l1.008,0.384l-0.479,0.864l-0.768-0.336
		L229.466,52.296z M229.227,68.664l0.72-0.288l0.48,0.864l-1.008,0.384L229.227,68.664z M231.578,53.352l0.96,0.672l-0.672,0.672
		l-0.768-0.528L231.578,53.352z M231.099,67.752l0.72-0.576l0.672,0.72l-0.912,0.672L231.099,67.752z M234.074,55.704l-0.864,0.48
		l-0.432-0.528l0.721-0.672L234.074,55.704z M233.45,66.888l-0.672-0.672l0.432-0.528l0.816,0.48L233.45,66.888z M234.698,56.856
		l0.528,1.2l-0.96,0.192l-0.385-0.912L234.698,56.856z M233.882,64.584l0.385-0.96l0.912,0.24l-0.48,1.2L233.882,64.584z
		 M234.554,62.472l0.145-1.008l0.96-0.048l-0.192,1.296L234.554,62.472z M235.515,59.16l0.144,1.296h-0.96l-0.096-1.056
		L235.515,59.16z"/>
</g>
<g>
	<path d="M223.988,45.873c0-1.392,1.2-2.208,2.376-2.208s2.376,0.816,2.376,2.208c0,1.392-1.2,2.256-2.376,2.256
		S223.988,47.265,223.988,45.873z M226.364,47.361c0.769,0,1.296-0.696,1.296-1.488s-0.527-1.44-1.296-1.44
		c-0.768,0-1.296,0.648-1.296,1.44S225.597,47.361,226.364,47.361z"/>
</g>
<g>
	<path d="M112.418,54.252c0,1.554-1.092,2.562-2.52,2.562c-1.386,0-2.478-1.008-2.478-2.562c0-1.47,1.092-2.52,2.478-2.52
		C111.326,51.732,112.418,52.782,112.418,54.252z M112.418,67.902c0,1.554-1.092,2.562-2.52,2.562c-1.386,0-2.478-1.008-2.478-2.562
		c0-1.47,1.092-2.52,2.478-2.52C111.326,65.382,112.418,66.432,112.418,67.902z"/>
</g>
<g>
	<path d="M112.418,126.252c0,1.554-1.092,2.563-2.52,2.563c-1.386,0-2.478-1.009-2.478-2.563c0-1.47,1.092-2.52,2.478-2.52
		C111.326,123.732,112.418,124.782,112.418,126.252z M112.418,139.902c0,1.554-1.092,2.562-2.52,2.562
		c-1.386,0-2.478-1.008-2.478-2.562c0-1.471,1.092-2.521,2.478-2.521C111.326,137.382,112.418,138.432,112.418,139.902z"/>
</g>
</svg>
