<?xml version="1.0" encoding="utf-8"?>
<!-- Generator: Adobe Illustrator 12.0.1, SVG Export Plug-In . SVG Version: 6.00 Build 51448)  -->
<!DOCTYPE svg PUBLIC "-//W3C//DTD SVG 1.1//EN" "http://www.w3.org/Graphics/SVG/1.1/DTD/svg11.dtd" [
	<!ENTITY ns_svg "http://www.w3.org/2000/svg">
	<!ENTITY ns_xlink "http://www.w3.org/1999/xlink">
]>
<svg  version="1.1" id="Layer_1" xmlns="&ns_svg;" xmlns:xlink="&ns_xlink;" width="367.066" height="160.632"
	 viewBox="0 0 367.066 160.632" overflow="visible" enable-background="new 0 0 367.066 160.632" xml:space="preserve">
<g>
	<path d="M348.629,69.96h-10.164v-0.966l1.344-0.168c1.555-0.168,1.723-0.63,1.303-1.932c-0.294-1.008-1.513-4.284-2.688-7.308
		h-8.525c-0.421,1.092-1.513,4.368-2.101,6.132c-0.798,2.436-0.42,2.982,1.47,3.15l1.261,0.126v0.966h-8.988v-0.966
		c2.73-0.294,3.066-0.546,4.536-4.284l8.063-20.748c-1.848-0.378-3.359-1.806-3.359-3.948c0-2.562,2.184-4.074,4.368-4.074
		c2.184,0,4.367,1.512,4.367,4.074c0,2.016-1.386,3.444-3.149,3.864l2.31,6.132c1.975,5.334,3.822,10.668,5.46,14.952
		c1.344,3.528,1.891,3.822,4.494,4.032V69.96z M330.443,57.99h7.434l-3.696-10.332h-0.084L330.443,57.99z M332.753,40.014
		c0,1.47,0.966,2.688,2.395,2.688c1.428,0,2.394-1.218,2.394-2.688c0-1.428-0.966-2.646-2.394-2.646
		C333.719,37.368,332.753,38.586,332.753,40.014z"/>
</g>
<g>
	<path d="M321.5,83.018c0-1.682,0.227-2.956,0.68-3.822c0.452-0.866,1.12-1.299,2.003-1.299c0.782,0,1.399,0.351,1.85,1.053
		c0.546,0.848,0.819,2.204,0.819,4.068c0,1.673-0.226,2.943-0.676,3.811c-0.45,0.869-1.119,1.303-2.007,1.303
		c-0.782,0-1.423-0.383-1.922-1.148C321.749,86.218,321.5,84.896,321.5,83.018z M322.539,83.015c0,1.627,0.155,2.717,0.466,3.271
		c0.312,0.553,0.709,0.83,1.194,0.83c0.459,0,0.842-0.28,1.15-0.841s0.463-1.647,0.463-3.261c0-1.631-0.155-2.723-0.466-3.274
		c-0.312-0.551-0.714-0.827-1.208-0.827c-0.454,0-0.834,0.28-1.141,0.841C322.692,80.314,322.539,81.401,322.539,83.015z"/>
	<path d="M327.885,83.018c0-1.682,0.227-2.956,0.68-3.822c0.452-0.866,1.12-1.299,2.003-1.299c0.782,0,1.399,0.351,1.85,1.053
		c0.546,0.848,0.819,2.204,0.819,4.068c0,1.673-0.226,2.943-0.676,3.811c-0.45,0.869-1.119,1.303-2.007,1.303
		c-0.782,0-1.423-0.383-1.922-1.148C328.134,86.218,327.885,84.896,327.885,83.018z M328.924,83.015
		c0,1.627,0.155,2.717,0.466,3.271c0.312,0.553,0.709,0.83,1.194,0.83c0.459,0,0.842-0.28,1.15-0.841s0.463-1.647,0.463-3.261
		c0-1.631-0.155-2.723-0.466-3.274c-0.312-0.551-0.714-0.827-1.208-0.827c-0.454,0-0.834,0.28-1.141,0.841
		C329.077,80.314,328.924,81.401,328.924,83.015z"/>
	<path d="M340.527,84.444l1.094,0.336c-0.241,1.126-0.664,1.967-1.268,2.521c-0.604,0.554-1.339,0.831-2.205,0.831
		c-0.761,0-1.411-0.186-1.951-0.558c-0.54-0.371-0.981-0.968-1.326-1.788c-0.344-0.82-0.516-1.789-0.516-2.906
		c0-1.104,0.172-2.037,0.517-2.8c0.344-0.764,0.81-1.34,1.397-1.73c0.589-0.39,1.245-0.585,1.97-0.585
		c0.793,0,1.475,0.247,2.045,0.74c0.569,0.494,0.968,1.219,1.196,2.174l-1.07,0.305c-0.365-1.391-1.097-2.086-2.195-2.086
		c-0.547,0-1.021,0.141-1.422,0.421c-0.401,0.28-0.722,0.717-0.961,1.311c-0.24,0.593-0.359,1.343-0.359,2.251
		c0,1.373,0.241,2.403,0.725,3.089c0.483,0.686,1.127,1.03,1.93,1.03c0.593,0,1.104-0.211,1.535-0.634
		C340.093,85.943,340.381,85.303,340.527,84.444z"/>
	<path d="M342.555,85.335l1.063-0.109c0.082,0.637,0.267,1.111,0.556,1.423c0.288,0.312,0.623,0.468,1.005,0.468
		c0.478,0,0.889-0.22,1.234-0.66c0.345-0.439,0.518-1.04,0.518-1.802c0-0.716-0.167-1.271-0.501-1.665
		c-0.333-0.395-0.752-0.592-1.257-0.592c-0.304,0-0.589,0.085-0.854,0.257c-0.266,0.171-0.476,0.41-0.63,0.715l-0.953-0.15
		l0.797-5.15h4.078v1.18h-3.281l-0.433,2.689c0.487-0.418,1.004-0.627,1.551-0.627c0.688,0,1.284,0.293,1.792,0.879
		S348,83.567,348,84.561c0,0.98-0.254,1.821-0.762,2.521s-1.19,1.05-2.047,1.05c-0.71,0-1.311-0.247-1.8-0.742
		C342.902,86.896,342.623,86.21,342.555,85.335z"/>
</g>
<g>
	<path d="M179.177,133.85c0-7.056,5.46-10.121,9.282-10.121c5.334,0,9.156,4.073,9.156,9.323c0,6.552-4.872,9.912-9.114,9.912
		C182.579,142.964,179.177,138.218,179.177,133.85z M193.793,133.976c0-4.661-2.016-8.987-5.838-8.987
		c-2.814,0-4.956,2.897-4.956,7.308c0,5.334,2.31,9.408,5.964,9.408C191.567,141.704,193.793,139.646,193.793,133.976z"/>
</g>
<g>
	<path d="M178,155.519c0-1.683,0.227-2.956,0.68-3.822c0.452-0.866,1.12-1.299,2.003-1.299c0.782,0,1.399,0.351,1.85,1.053
		c0.546,0.848,0.819,2.204,0.819,4.068c0,1.672-0.226,2.942-0.676,3.811c-0.45,0.869-1.119,1.303-2.007,1.303
		c-0.782,0-1.423-0.383-1.922-1.148C178.249,158.718,178,157.396,178,155.519z M179.039,155.515c0,1.627,0.155,2.717,0.466,3.271
		c0.312,0.553,0.709,0.83,1.194,0.83c0.459,0,0.842-0.28,1.15-0.841s0.463-1.647,0.463-3.261c0-1.632-0.155-2.723-0.466-3.274
		c-0.312-0.552-0.714-0.827-1.208-0.827c-0.454,0-0.834,0.28-1.141,0.841C179.192,152.814,179.039,153.901,179.039,155.515z"/>
	<path d="M184.385,155.519c0-1.683,0.227-2.956,0.68-3.822c0.452-0.866,1.12-1.299,2.003-1.299c0.782,0,1.399,0.351,1.85,1.053
		c0.546,0.848,0.819,2.204,0.819,4.068c0,1.672-0.226,2.942-0.676,3.811c-0.45,0.869-1.119,1.303-2.007,1.303
		c-0.782,0-1.423-0.383-1.922-1.148C184.634,158.718,184.385,157.396,184.385,155.519z M185.424,155.515
		c0,1.627,0.155,2.717,0.466,3.271c0.312,0.553,0.709,0.83,1.194,0.83c0.459,0,0.842-0.28,1.15-0.841s0.463-1.647,0.463-3.261
		c0-1.632-0.155-2.723-0.466-3.274c-0.312-0.552-0.714-0.827-1.208-0.827c-0.454,0-0.834,0.28-1.141,0.841
		C185.577,152.814,185.424,153.901,185.424,155.515z"/>
	<path d="M195.996,152.89l-1.008,0.094c-0.096-0.512-0.236-0.877-0.422-1.095c-0.268-0.317-0.59-0.476-0.966-0.476
		c-0.585,0-1.055,0.364-1.409,1.093c-0.304,0.628-0.458,1.557-0.462,2.786c0.231-0.438,0.522-0.769,0.873-0.994
		c0.351-0.225,0.722-0.338,1.112-0.338c0.65,0,1.219,0.295,1.703,0.885c0.484,0.591,0.727,1.38,0.727,2.369
		c0,0.67-0.122,1.277-0.365,1.822c-0.244,0.544-0.557,0.946-0.939,1.206c-0.382,0.26-0.803,0.39-1.263,0.39
		c-0.829,0-1.512-0.374-2.049-1.121c-0.537-0.748-0.806-1.994-0.806-3.74c0-1.937,0.275-3.316,0.825-4.139
		c0.551-0.823,1.256-1.234,2.115-1.234c0.623,0,1.145,0.213,1.565,0.639S195.905,152.079,195.996,152.89z M191.887,157.212
		c0,0.724,0.17,1.306,0.511,1.745c0.34,0.439,0.734,0.659,1.184,0.659c0.395,0,0.747-0.207,1.059-0.621
		c0.311-0.415,0.466-0.984,0.466-1.709c0-0.71-0.154-1.261-0.463-1.652s-0.685-0.588-1.13-0.588c-0.436,0-0.815,0.194-1.14,0.584
		S191.887,156.547,191.887,157.212z"/>
	<path d="M197.654,160.46v-10.023h5.547v1.18h-4.461v3.109h3.859v1.18h-3.859v4.555H197.654z"/>
	<path d="M220.13,155.519c0-1.683,0.227-2.956,0.679-3.822c0.453-0.866,1.121-1.299,2.004-1.299c0.783,0,1.399,0.351,1.85,1.053
		c0.546,0.848,0.819,2.204,0.819,4.068c0,1.672-0.226,2.942-0.676,3.811c-0.45,0.869-1.119,1.303-2.007,1.303
		c-0.783,0-1.423-0.383-1.922-1.148C220.379,158.718,220.13,157.396,220.13,155.519z M221.169,155.515
		c0,1.627,0.155,2.717,0.466,3.271c0.312,0.553,0.709,0.83,1.194,0.83c0.459,0,0.842-0.28,1.15-0.841s0.463-1.647,0.463-3.261
		c0-1.632-0.155-2.723-0.466-3.274c-0.312-0.552-0.714-0.827-1.208-0.827c-0.454,0-0.834,0.28-1.141,0.841
		C221.322,152.814,221.169,153.901,221.169,155.515z"/>
	<path d="M226.515,157.812l1.008-0.164c0.21,1.313,0.741,1.969,1.594,1.969c0.46,0,0.859-0.194,1.197-0.584
		c0.337-0.39,0.506-0.895,0.506-1.514c0-0.584-0.155-1.053-0.466-1.408c-0.31-0.355-0.691-0.533-1.143-0.533
		c-0.191,0-0.429,0.046-0.712,0.137l0.117-1.082l0.157,0.014c0.498,0,0.902-0.152,1.213-0.457s0.466-0.711,0.466-1.221
		c0-0.468-0.13-0.844-0.39-1.129c-0.26-0.283-0.576-0.426-0.949-0.426c-0.387,0-0.714,0.149-0.98,0.447
		c-0.267,0.299-0.436,0.751-0.509,1.357l-1.008-0.219c0.128-0.858,0.415-1.506,0.861-1.944c0.447-0.438,0.987-0.657,1.62-0.657
		c0.666,0,1.231,0.246,1.696,0.738c0.465,0.491,0.697,1.111,0.697,1.857c0,0.456-0.1,0.859-0.298,1.21s-0.475,0.626-0.83,0.826
		c0.327,0.092,0.598,0.242,0.811,0.451c0.214,0.21,0.387,0.489,0.519,0.841c0.132,0.351,0.197,0.742,0.197,1.175
		c0,0.92-0.271,1.673-0.813,2.258s-1.19,0.878-1.946,0.878c-0.701,0-1.296-0.255-1.783-0.765S226.583,158.672,226.515,157.812z"/>
	<path d="M232.899,155.519c0-1.683,0.227-2.956,0.679-3.822c0.453-0.866,1.121-1.299,2.004-1.299c0.783,0,1.399,0.351,1.85,1.053
		c0.546,0.848,0.819,2.204,0.819,4.068c0,1.672-0.226,2.942-0.676,3.811c-0.45,0.869-1.119,1.303-2.007,1.303
		c-0.783,0-1.423-0.383-1.922-1.148C233.148,158.718,232.899,157.396,232.899,155.519z M233.938,155.515
		c0,1.627,0.155,2.717,0.466,3.271c0.312,0.553,0.709,0.83,1.194,0.83c0.459,0,0.842-0.28,1.15-0.841s0.463-1.647,0.463-3.261
		c0-1.632-0.155-2.723-0.466-3.274c-0.312-0.552-0.714-0.827-1.208-0.827c-0.454,0-0.834,0.28-1.141,0.841
		C234.092,152.814,233.938,153.901,233.938,155.515z"/>
	<path d="M244.597,159.28v1.18h-5.43c-0.014-0.479,0.131-1.014,0.433-1.605c0.302-0.593,0.855-1.292,1.659-2.099
		c0.94-0.939,1.557-1.666,1.847-2.179c0.291-0.513,0.437-0.991,0.437-1.434c0-0.511-0.148-0.927-0.445-1.248
		s-0.663-0.482-1.098-0.482c-0.467,0-0.85,0.174-1.149,0.521c-0.299,0.347-0.448,0.846-0.448,1.494l-1.039-0.133
		c0.073-0.962,0.345-1.686,0.815-2.17c0.471-0.486,1.09-0.729,1.858-0.729c0.837,0,1.471,0.282,1.9,0.848s0.645,1.208,0.645,1.928
		c0,0.639-0.169,1.25-0.505,1.836c-0.338,0.586-0.978,1.366-1.92,2.342c-0.601,0.616-0.988,1.036-1.164,1.26
		c-0.175,0.223-0.317,0.446-0.427,0.67H244.597z"/>
</g>
<g>
	<path d="M0,155.019c0-1.683,0.227-2.956,0.679-3.822s1.121-1.299,2.003-1.299c0.783,0,1.399,0.351,1.85,1.053
		c0.546,0.848,0.819,2.204,0.819,4.068c0,1.672-0.226,2.942-0.676,3.811c-0.451,0.869-1.12,1.303-2.007,1.303
		c-0.783,0-1.423-0.383-1.921-1.148C0.249,158.218,0,156.896,0,155.019z M1.039,155.015c0,1.627,0.155,2.717,0.466,3.271
		c0.311,0.553,0.708,0.83,1.194,0.83c0.458,0,0.841-0.28,1.15-0.841s0.463-1.647,0.463-3.261c0-1.632-0.155-2.723-0.466-3.274
		c-0.311-0.552-0.713-0.827-1.208-0.827c-0.454,0-0.833,0.28-1.14,0.841S1.039,153.401,1.039,155.015z"/>
	<path d="M6.385,155.019c0-1.683,0.227-2.956,0.679-3.822s1.121-1.299,2.003-1.299c0.783,0,1.399,0.351,1.85,1.053
		c0.546,0.848,0.819,2.204,0.819,4.068c0,1.672-0.226,2.942-0.676,3.811c-0.451,0.869-1.12,1.303-2.007,1.303
		c-0.783,0-1.423-0.383-1.921-1.148C6.634,158.218,6.385,156.896,6.385,155.019z M7.424,155.015c0,1.627,0.155,2.717,0.466,3.271
		c0.311,0.553,0.708,0.83,1.194,0.83c0.458,0,0.841-0.28,1.15-0.841s0.463-1.647,0.463-3.261c0-1.632-0.155-2.723-0.466-3.274
		c-0.311-0.552-0.713-0.827-1.208-0.827c-0.454,0-0.833,0.28-1.14,0.841S7.424,153.401,7.424,155.015z"/>
	<path d="M13.27,159.96v-10.023h5.547v1.18h-4.461v3.109h3.859v1.18h-3.859v4.555H13.27z"/>
	<path d="M23.018,159.96v-2.398h-3.563v-1.125l3.75-6.5h0.829v6.5h1.117v1.125h-1.117v2.398H23.018z M23.018,156.437v-4.522
		l-2.571,4.522H23.018z"/>
</g>
<g>
	<path d="M3.099,11.736c0.384,1.128,1.608,3.792,4.152,3.792c1.824,0,2.976-1.224,2.976-3.096c0-2.04-1.56-2.88-3.096-3.624
		C6.339,8.424,3.099,7.296,3.099,4.416C3.099,2.04,4.899,0,8.043,0c0.672,0,1.488,0.144,1.992,0.312
		c0.312,0.096,0.648,0.216,0.912,0.264c0.096,0.84,0.24,1.8,0.432,3.24l-0.6,0.072c-0.408-1.416-1.08-3.096-3.264-3.096
		c-1.704,0-2.592,1.248-2.592,2.664c0,1.776,1.272,2.568,3.096,3.384c1.584,0.696,4.104,1.68,4.104,4.656
		c0,2.784-2.28,4.824-5.328,4.824c-0.864,0-1.68-0.168-2.28-0.36s-1.032-0.384-1.32-0.504c-0.192-0.624-0.456-2.328-0.696-3.624
		L3.099,11.736z"/>
	<path d="M13.947,11.04c0-4.032,3.12-5.784,5.304-5.784c3.048,0,5.232,2.328,5.232,5.328c0,3.744-2.784,5.664-5.208,5.664
		C15.891,16.248,13.947,13.536,13.947,11.04z M22.299,11.112c0-2.664-1.152-5.136-3.336-5.136c-1.608,0-2.832,1.656-2.832,4.176
		c0,3.048,1.32,5.376,3.408,5.376C21.027,15.528,22.299,14.352,22.299,11.112z"/>
	<path d="M34.419,7.584c0-0.888-0.24-1.08-0.744-1.128l-1.152-0.144V5.808c1.104-0.048,2.856-0.288,3.768-0.432v8.4
		c0,0.96,0.192,1.032,0.696,1.056l1.056,0.048v0.528c-1.008,0.12-2.76,0.6-3.48,0.84l-0.144-0.144V14.4
		c-0.552,0.432-1.2,0.912-1.824,1.272c-0.696,0.408-1.296,0.576-1.896,0.576c-1.704,0-3-0.888-3-3.288V7.584
		c0-0.888-0.216-1.08-0.768-1.152l-0.744-0.12V5.808c0.72-0.048,2.472-0.288,3.384-0.432v6.744c0,2.232,1.032,2.76,2.112,2.76
		c0.84,0,1.752-0.384,2.736-1.224V7.584z"/>
	<path d="M42.723,13.8c0,1.344,0.12,1.464,1.992,1.608v0.552h-5.52v-0.552c1.536-0.144,1.656-0.264,1.656-1.608V8.256
		c0-1.44-0.048-1.464-1.632-1.656V6.168c1.128-0.24,2.304-0.528,3.504-0.96V7.68h0.048c0.552-0.936,1.728-2.424,2.88-2.424
		c0.72,0,1.296,0.648,1.296,1.128c0,0.408-0.264,0.96-0.768,1.176c-0.264,0.12-0.48,0.072-0.6-0.024
		c-0.336-0.288-0.6-0.504-1.032-0.504c-0.576,0-1.2,0.456-1.824,1.704V13.8z"/>
	<path d="M56.667,13.656c-0.984,1.488-2.496,2.592-3.864,2.592c-3.048,0-4.968-2.424-4.968-5.064c0-1.8,0.864-3.408,2.184-4.488
		c1.44-1.176,3.096-1.44,3.912-1.44c0.552,0,1.584,0.216,2.112,0.648c0.168,0.144,0.24,0.288,0.24,0.528
		c0,0.528-0.48,1.056-0.792,1.056c-0.096,0-0.192-0.024-0.36-0.168c-0.936-0.84-1.728-1.032-2.496-1.032
		c-1.176,0-2.88,1.056-2.88,3.816c0,3.624,2.568,4.584,3.744,4.584c1.056,0,1.584-0.24,2.856-1.344L56.667,13.656z"/>
	<path d="M66.075,13.896c-1.32,1.872-2.976,2.352-3.624,2.352c-3.048,0-4.872-2.28-4.872-5.064c0-3.216,2.256-5.928,5.136-5.928
		c1.872,0,3.432,1.728,3.432,3.336c0,0.744-0.072,0.792-0.504,0.888c-0.336,0.072-3.312,0.312-6.288,0.408
		c-0.072,3.576,2.184,4.824,3.912,4.824c0.792,0,1.512-0.288,2.472-1.152L66.075,13.896z M63.675,8.952
		c0.336,0,0.432-0.12,0.432-0.768c0-0.96-0.768-2.112-2.016-2.112c-1.152,0-2.4,1.176-2.592,2.952L63.675,8.952z"/>
</g>
<g>
	<path d="M192.611,16.128h-0.624L181.571,3.48h-0.048V9.6c0,2.52,0.096,3.816,0.191,4.56c0.12,0.84,0.769,1.176,2.353,1.248v0.552
		h-5.761v-0.552c1.32-0.048,1.944-0.408,2.064-1.248c0.096-0.744,0.192-2.04,0.192-4.56V4.392c0-1.728-0.024-2.112-0.456-2.664
		c-0.456-0.576-1.104-0.744-2.112-0.816V0.36h3.504l10.104,12.096h0.048V6.72c0-2.52-0.097-3.816-0.192-4.56
		c-0.12-0.84-0.768-1.176-2.352-1.248V0.36h5.76v0.552c-1.32,0.048-1.944,0.408-2.064,1.248c-0.096,0.744-0.191,2.04-0.191,4.56
		V16.128z"/>
	<path d="M198.371,3.84c0-2.616-0.191-2.784-2.112-2.928V0.36h10.417c0.023,0.408,0.144,2.16,0.264,3.504l-0.601,0.072
		c-0.239-1.2-0.504-1.824-0.863-2.208c-0.384-0.408-1.177-0.576-2.641-0.576h-1.728c-0.672,0-0.72,0.048-0.72,0.744v5.736h2.615
		c2.064,0,2.137-0.144,2.376-1.92h0.601v4.728h-0.601c-0.239-1.776-0.312-1.92-2.376-1.92h-2.615v3.96
		c0,2.616,0.191,2.784,2.495,2.928v0.552h-6.624v-0.552c1.921-0.144,2.112-0.312,2.112-2.928V3.84z"/>
	<path d="M215.362,0.36c2.856,0,5.16,0.576,6.696,2.016c1.2,1.128,2.088,2.88,2.088,5.088c0,5.928-4.536,8.496-10.176,8.496h-5.521
		v-0.552c2.064-0.144,2.257-0.312,2.257-2.928V3.84c0-2.616-0.192-2.784-2.064-2.928V0.36H215.362z M212.723,12.888
		c0,1.104,0.072,1.584,0.408,1.872c0.312,0.264,0.888,0.408,1.704,0.408c5.04,0,6.983-3.48,6.983-7.08
		c0-2.424-0.527-4.992-2.928-6.24c-0.936-0.504-2.304-0.792-4.224-0.792c-1.2,0-1.536,0.072-1.729,0.144
		c-0.144,0.048-0.216,0.192-0.216,0.672V12.888z"/>
</g>
<g>
	<path d="M336.611,16.128h-0.624L325.571,3.48h-0.048V9.6c0,2.52,0.096,3.816,0.191,4.56c0.12,0.84,0.769,1.176,2.353,1.248v0.552
		h-5.761v-0.552c1.32-0.048,1.944-0.408,2.064-1.248c0.096-0.744,0.192-2.04,0.192-4.56V4.392c0-1.728-0.024-2.112-0.456-2.664
		c-0.456-0.576-1.104-0.744-2.112-0.816V0.36h3.504l10.104,12.096h0.048V6.72c0-2.52-0.097-3.816-0.192-4.56
		c-0.12-0.84-0.768-1.176-2.352-1.248V0.36h5.76v0.552c-1.32,0.048-1.944,0.408-2.064,1.248c-0.096,0.744-0.191,2.04-0.191,4.56
		V16.128z"/>
	<path d="M342.371,3.84c0-2.616-0.191-2.784-2.112-2.928V0.36h10.417c0.023,0.408,0.144,2.16,0.264,3.504l-0.601,0.072
		c-0.239-1.2-0.504-1.824-0.863-2.208c-0.384-0.408-1.177-0.576-2.641-0.576h-1.728c-0.672,0-0.72,0.048-0.72,0.744v5.736h2.615
		c2.064,0,2.137-0.144,2.376-1.92h0.601v4.728h-0.601c-0.239-1.776-0.312-1.92-2.376-1.92h-2.615v3.96
		c0,2.616,0.191,2.784,2.495,2.928v0.552h-6.624v-0.552c1.921-0.144,2.112-0.312,2.112-2.928V3.84z"/>
	<path d="M365.938,4.296c-0.72-2.76-2.256-3.504-4.607-3.504c-4.32,0-6.24,3.264-6.24,7.032c0,4.632,2.376,7.704,6.264,7.704
		c2.688,0,3.937-1.296,5.112-3.816l0.6,0.072c-0.312,1.032-0.84,2.952-1.224,3.864c-0.672,0.168-2.832,0.672-4.512,0.672
		c-6.072,0-8.616-4.128-8.616-7.944c0-4.944,3.815-8.376,9.072-8.376c2.04,0,3.647,0.48,4.319,0.624
		c0.192,1.32,0.288,2.376,0.433,3.624L365.938,4.296z"/>
</g>
<g>
	<path d="M28.629,69.96H18.465v-0.966l1.344-0.168c1.554-0.168,1.722-0.63,1.302-1.932c-0.294-1.008-1.512-4.284-2.688-7.308H9.897
		c-0.42,1.092-1.512,4.368-2.1,6.132c-0.798,2.436-0.42,2.982,1.47,3.15l1.26,0.126v0.966H1.539v-0.966
		c2.73-0.294,3.066-0.546,4.536-4.284l8.064-20.748c-1.848-0.378-3.36-1.806-3.36-3.948c0-2.562,2.184-4.074,4.368-4.074
		s4.368,1.512,4.368,4.074c0,2.016-1.386,3.444-3.15,3.864l2.31,6.132c1.974,5.334,3.822,10.668,5.46,14.952
		c1.344,3.528,1.89,3.822,4.494,4.032V69.96z M10.443,57.99h7.434l-3.696-10.332h-0.084L10.443,57.99z M12.753,40.014
		c0,1.47,0.966,2.688,2.394,2.688c1.428,0,2.394-1.218,2.394-2.688c0-1.428-0.966-2.646-2.394-2.646
		C13.719,37.368,12.753,38.586,12.753,40.014z"/>
</g>
<g>
	<path d="M1.5,83.018c0-1.682,0.227-2.956,0.679-3.822c0.453-0.866,1.121-1.299,2.003-1.299c0.783,0,1.399,0.351,1.85,1.053
		c0.546,0.848,0.819,2.204,0.819,4.068c0,1.673-0.226,2.943-0.676,3.811c-0.451,0.869-1.12,1.303-2.007,1.303
		c-0.783,0-1.423-0.383-1.921-1.148C1.749,86.218,1.5,84.896,1.5,83.018z M2.539,83.015c0,1.627,0.155,2.717,0.466,3.271
		c0.311,0.553,0.708,0.83,1.194,0.83c0.458,0,0.841-0.28,1.15-0.841s0.463-1.647,0.463-3.261c0-1.631-0.155-2.723-0.466-3.274
		c-0.311-0.551-0.713-0.827-1.208-0.827c-0.454,0-0.833,0.28-1.14,0.841S2.539,81.401,2.539,83.015z"/>
	<path d="M7.885,83.018c0-1.682,0.227-2.956,0.679-3.822c0.453-0.866,1.121-1.299,2.003-1.299c0.783,0,1.399,0.351,1.85,1.053
		c0.546,0.848,0.819,2.204,0.819,4.068c0,1.673-0.226,2.943-0.676,3.811c-0.451,0.869-1.12,1.303-2.007,1.303
		c-0.783,0-1.423-0.383-1.921-1.148C8.134,86.218,7.885,84.896,7.885,83.018z M8.924,83.015c0,1.627,0.155,2.717,0.466,3.271
		c0.311,0.553,0.708,0.83,1.194,0.83c0.458,0,0.841-0.28,1.15-0.841s0.463-1.647,0.463-3.261c0-1.631-0.155-2.723-0.466-3.274
		c-0.311-0.551-0.713-0.827-1.208-0.827c-0.454,0-0.833,0.28-1.14,0.841S8.924,81.401,8.924,83.015z"/>
	<path d="M20.527,84.444l1.094,0.336c-0.242,1.126-0.664,1.967-1.268,2.521c-0.604,0.554-1.338,0.831-2.204,0.831
		c-0.761,0-1.412-0.186-1.952-0.558c-0.54-0.371-0.982-0.968-1.326-1.788c-0.344-0.82-0.516-1.789-0.516-2.906
		c0-1.104,0.172-2.037,0.516-2.8s0.81-1.34,1.398-1.73c0.588-0.39,1.245-0.585,1.969-0.585c0.793,0,1.475,0.247,2.044,0.74
		c0.57,0.494,0.969,1.219,1.197,2.174l-1.07,0.305c-0.365-1.391-1.097-2.086-2.195-2.086c-0.547,0-1.021,0.141-1.422,0.421
		c-0.401,0.28-0.722,0.717-0.961,1.311c-0.239,0.593-0.359,1.343-0.359,2.251c0,1.373,0.242,2.403,0.725,3.089
		c0.483,0.686,1.126,1.03,1.929,1.03c0.593,0,1.105-0.211,1.536-0.634C20.093,85.943,20.381,85.303,20.527,84.444z"/>
	<path d="M22.555,85.335l1.063-0.109c0.082,0.637,0.267,1.111,0.556,1.423c0.288,0.312,0.624,0.468,1.005,0.468
		c0.478,0,0.889-0.22,1.234-0.66c0.345-0.439,0.518-1.04,0.518-1.802c0-0.716-0.167-1.271-0.5-1.665
		c-0.334-0.395-0.753-0.592-1.257-0.592c-0.304,0-0.589,0.085-0.855,0.257c-0.266,0.171-0.476,0.41-0.63,0.715l-0.953-0.15
		l0.797-5.15h4.078v1.18h-3.282l-0.432,2.689c0.487-0.418,1.004-0.627,1.55-0.627c0.688,0,1.285,0.293,1.792,0.879
		C27.746,82.776,28,83.567,28,84.561c0,0.98-0.254,1.821-0.762,2.521s-1.19,1.05-2.046,1.05c-0.71,0-1.311-0.247-1.8-0.742
		C22.902,86.896,22.623,86.21,22.555,85.335z"/>
</g>
<g>
	<path d="M321.5,155.019c0-1.683,0.227-2.956,0.68-3.822c0.452-0.866,1.12-1.299,2.003-1.299c0.782,0,1.399,0.351,1.85,1.053
		c0.546,0.848,0.819,2.204,0.819,4.068c0,1.672-0.226,2.942-0.676,3.811c-0.45,0.869-1.119,1.303-2.007,1.303
		c-0.782,0-1.423-0.383-1.922-1.148C321.749,158.218,321.5,156.896,321.5,155.019z M322.539,155.015
		c0,1.627,0.155,2.717,0.466,3.271c0.312,0.553,0.709,0.83,1.194,0.83c0.459,0,0.842-0.28,1.15-0.841s0.463-1.647,0.463-3.261
		c0-1.632-0.155-2.723-0.466-3.274c-0.312-0.552-0.714-0.827-1.208-0.827c-0.454,0-0.834,0.28-1.141,0.841
		C322.692,152.314,322.539,153.401,322.539,155.015z"/>
	<path d="M327.885,155.019c0-1.683,0.227-2.956,0.68-3.822c0.452-0.866,1.12-1.299,2.003-1.299c0.782,0,1.399,0.351,1.85,1.053
		c0.546,0.848,0.819,2.204,0.819,4.068c0,1.672-0.226,2.942-0.676,3.811c-0.45,0.869-1.119,1.303-2.007,1.303
		c-0.782,0-1.423-0.383-1.922-1.148C328.134,158.218,327.885,156.896,327.885,155.019z M328.924,155.015
		c0,1.627,0.155,2.717,0.466,3.271c0.312,0.553,0.709,0.83,1.194,0.83c0.459,0,0.842-0.28,1.15-0.841s0.463-1.647,0.463-3.261
		c0-1.632-0.155-2.723-0.466-3.274c-0.312-0.552-0.714-0.827-1.208-0.827c-0.454,0-0.834,0.28-1.141,0.841
		C329.077,152.314,328.924,153.401,328.924,155.015z"/>
	<path d="M334.77,159.96v-10.023h5.547v1.18h-4.461v3.109h3.859v1.18h-3.859v4.555H334.77z"/>
	<path d="M344.518,159.96v-2.398h-3.563v-1.125l3.75-6.5h0.828v6.5h1.117v1.125h-1.117v2.398H344.518z M344.518,156.437v-4.522
		l-2.571,4.522H344.518z"/>
</g>
<g>
	<path d="M222.146,132.956l0.145-1.296l0.912,0.239l-0.096,1.057H222.146z M223.059,133.916l0.145,1.056l-0.912,0.288l-0.145-1.344
		H223.059z M222.579,130.556l0.384-1.008l0.864,0.48l-0.288,0.768L222.579,130.556z M223.491,136.124l0.336,0.768l-0.864,0.48
		l-0.384-1.008L223.491,136.124z M223.635,128.396l0.672-0.912l0.721,0.672l-0.576,0.721L223.635,128.396z M224.451,138.044
		l0.527,0.672l-0.672,0.672l-0.672-0.863L224.451,138.044z M225.268,140.349l0.672-0.673l0.527,0.433l-0.48,0.815L225.268,140.349z
		 M226.035,125.948l0.48,0.863l-0.529,0.385l-0.672-0.672L226.035,125.948z M227.139,125.272l1.2-0.48l0.24,0.912l-0.96,0.433
		L227.139,125.272z M227.619,140.78l0.96,0.384l-0.24,0.96l-1.2-0.527L227.619,140.78z M229.684,141.436l1.055,0.144v0.912
		l-1.295-0.096L229.684,141.436z M229.491,124.497l1.296-0.193l-0.049,0.969l-1.008,0.145L229.491,124.497z M231.699,124.304
		l1.296,0.193l-0.24,0.92l-1.056-0.145V124.304z M231.699,141.587l1.056-0.096l0.24,0.904l-1.296,0.096V141.587z M234.146,124.796
		l1.008,0.385l-0.479,0.863l-0.768-0.336L234.146,124.796z M233.907,141.164l0.72-0.288l0.48,0.863l-1.008,0.385L233.907,141.164z
		 M236.259,125.853l0.96,0.672l-0.672,0.672l-0.768-0.528L236.259,125.853z M235.779,140.252l0.72-0.576l0.672,0.72l-0.912,0.672
		L235.779,140.252z M238.755,128.204l-0.864,0.48l-0.432-0.529l0.721-0.672L238.755,128.204z M238.131,139.388l-0.672-0.672
		l0.432-0.527l0.816,0.479L238.131,139.388z M239.379,129.356l0.528,1.199l-0.96,0.192l-0.385-0.912L239.379,129.356z
		 M238.563,137.084l0.385-0.96l0.912,0.24l-0.48,1.199L238.563,137.084z M239.234,134.972l0.145-1.008l0.96-0.048l-0.192,1.296
		L239.234,134.972z M240.195,131.66l0.144,1.296h-0.96l-0.096-1.057L240.195,131.66z"/>
</g>
<g>
	<g>
		<path d="M3.177,133.35c0-7.056,5.46-10.121,9.282-10.121c5.334,0,9.156,4.073,9.156,9.323c0,6.552-4.872,9.912-9.114,9.912
			C6.579,142.464,3.177,137.718,3.177,133.35z M17.793,133.476c0-4.661-2.016-8.987-5.838-8.987c-2.814,0-4.956,2.897-4.956,7.308
			c0,5.334,2.31,9.408,5.964,9.408C15.567,141.204,17.793,139.146,17.793,133.476z"/>
	</g>
	<g>
		<path d="M12.637,113.198l4.116,7.14l-0.882,0.588l-3.654-4.704l-3.696,4.704l-0.882-0.588l4.2-7.14H12.637z"/>
	</g>
</g>
<g>
	<path d="M230.637,114.198l4.116,7.14l-0.882,0.588l-3.654-4.704l-3.695,4.704l-0.883-0.588l4.2-7.14H230.637z"/>
</g>
<g>
	<g>
		<path d="M324.677,133.35c0-7.056,5.46-10.121,9.282-10.121c5.334,0,9.156,4.073,9.156,9.323c0,6.552-4.872,9.912-9.114,9.912
			C328.079,142.464,324.677,137.718,324.677,133.35z M339.293,133.476c0-4.661-2.016-8.987-5.838-8.987
			c-2.814,0-4.956,2.897-4.956,7.308c0,5.334,2.31,9.408,5.964,9.408C337.067,141.204,339.293,139.146,339.293,133.476z"/>
	</g>
	<g>
		<g>
			<path d="M334.137,113.198l4.116,7.14l-0.882,0.588l-3.654-4.704l-3.695,4.704l-0.883-0.588l4.2-7.14H334.137z"/>
		</g>
	</g>
</g>
<g>
	<path d="M194.465,68.994l1.344-0.168c1.555-0.168,1.723-0.63,1.303-1.932c-0.294-1.008-1.513-4.284-2.688-7.308h-8.525
		c-0.421,1.092-1.513,4.368-2.101,6.132c-0.798,2.436-0.42,2.982,1.47,3.15l1.261,0.126v0.966h-8.988v-0.966
		c2.73-0.294,3.066-0.546,4.536-4.284l8.651-22.302l0.967-0.378l2.981,7.98c1.975,5.334,3.822,10.668,5.46,14.952
		c1.344,3.528,1.891,3.822,4.494,4.032v0.966h-10.164V68.994z M186.443,57.99h7.434l-3.696-10.332h-0.084L186.443,57.99z"/>
</g>
<g>
	<path d="M180,83.018c0-1.682,0.227-2.956,0.68-3.822c0.452-0.866,1.12-1.299,2.003-1.299c0.782,0,1.399,0.351,1.85,1.053
		c0.546,0.848,0.819,2.204,0.819,4.068c0,1.673-0.226,2.943-0.676,3.811c-0.45,0.869-1.119,1.303-2.007,1.303
		c-0.782,0-1.423-0.383-1.922-1.148C180.249,86.218,180,84.896,180,83.018z M181.039,83.015c0,1.627,0.155,2.717,0.466,3.271
		c0.312,0.553,0.709,0.83,1.194,0.83c0.459,0,0.842-0.28,1.15-0.841s0.463-1.647,0.463-3.261c0-1.631-0.155-2.723-0.466-3.274
		c-0.312-0.551-0.714-0.827-1.208-0.827c-0.454,0-0.834,0.28-1.141,0.841C181.192,80.314,181.039,81.401,181.039,83.015z"/>
	<path d="M186.385,83.018c0-1.682,0.227-2.956,0.68-3.822c0.452-0.866,1.12-1.299,2.003-1.299c0.782,0,1.399,0.351,1.85,1.053
		c0.546,0.848,0.819,2.204,0.819,4.068c0,1.673-0.226,2.943-0.676,3.811c-0.45,0.869-1.119,1.303-2.007,1.303
		c-0.782,0-1.423-0.383-1.922-1.148C186.634,86.218,186.385,84.896,186.385,83.018z M187.424,83.015
		c0,1.627,0.155,2.717,0.466,3.271c0.312,0.553,0.709,0.83,1.194,0.83c0.459,0,0.842-0.28,1.15-0.841s0.463-1.647,0.463-3.261
		c0-1.631-0.155-2.723-0.466-3.274c-0.312-0.551-0.714-0.827-1.208-0.827c-0.454,0-0.834,0.28-1.141,0.841
		C187.577,80.314,187.424,81.401,187.424,83.015z"/>
	<path d="M196.004,87.96v-2.398h-3.563v-1.125l3.75-6.5h0.828v6.5h1.117v1.125h-1.117v2.398H196.004z M196.004,84.437v-4.522
		l-2.571,4.522H196.004z"/>
	<path d="M202.959,87.96h-1.016v-7.844c-0.232,0.273-0.545,0.553-0.937,0.838s-0.751,0.5-1.079,0.646v-1.188
		c0.556-0.319,1.047-0.708,1.474-1.169c0.426-0.46,0.726-0.909,0.898-1.347h0.659V87.96z"/>
	<path d="M215.116,83.018c0-1.682,0.227-2.956,0.679-3.822c0.453-0.866,1.121-1.299,2.004-1.299c0.783,0,1.399,0.351,1.85,1.053
		c0.546,0.848,0.819,2.204,0.819,4.068c0,1.673-0.226,2.943-0.676,3.811c-0.45,0.869-1.119,1.303-2.007,1.303
		c-0.783,0-1.423-0.383-1.922-1.148C215.365,86.218,215.116,84.896,215.116,83.018z M216.155,83.015
		c0,1.627,0.155,2.717,0.466,3.271c0.312,0.553,0.709,0.83,1.194,0.83c0.459,0,0.842-0.28,1.15-0.841s0.463-1.647,0.463-3.261
		c0-1.631-0.155-2.723-0.466-3.274c-0.312-0.551-0.714-0.827-1.208-0.827c-0.454,0-0.834,0.28-1.141,0.841
		C216.309,80.314,216.155,81.401,216.155,83.015z"/>
	<path d="M221.501,85.312l1.008-0.164c0.21,1.313,0.741,1.969,1.594,1.969c0.46,0,0.859-0.194,1.197-0.584
		c0.337-0.39,0.506-0.895,0.506-1.514c0-0.583-0.155-1.052-0.466-1.408c-0.31-0.355-0.691-0.533-1.143-0.533
		c-0.191,0-0.429,0.046-0.712,0.137l0.117-1.082l0.157,0.014c0.498,0,0.902-0.152,1.213-0.457s0.466-0.711,0.466-1.221
		c0-0.468-0.13-0.844-0.39-1.128s-0.576-0.426-0.949-0.426c-0.387,0-0.714,0.149-0.98,0.448s-0.436,0.751-0.509,1.357l-1.008-0.219
		c0.128-0.858,0.415-1.506,0.861-1.944c0.447-0.438,0.987-0.657,1.62-0.657c0.666,0,1.231,0.246,1.696,0.738
		c0.465,0.492,0.697,1.111,0.697,1.858c0,0.456-0.1,0.859-0.298,1.209s-0.475,0.626-0.83,0.826c0.327,0.091,0.598,0.242,0.811,0.451
		c0.214,0.209,0.387,0.49,0.519,0.84c0.132,0.351,0.197,0.743,0.197,1.175c0,0.92-0.271,1.673-0.813,2.258s-1.19,0.878-1.946,0.878
		c-0.701,0-1.296-0.255-1.783-0.765S221.569,86.172,221.501,85.312z"/>
	<path d="M227.886,83.018c0-1.682,0.227-2.956,0.679-3.822c0.453-0.866,1.121-1.299,2.004-1.299c0.783,0,1.399,0.351,1.85,1.053
		c0.546,0.848,0.819,2.204,0.819,4.068c0,1.673-0.226,2.943-0.676,3.811c-0.45,0.869-1.119,1.303-2.007,1.303
		c-0.783,0-1.423-0.383-1.922-1.148C228.135,86.218,227.886,84.896,227.886,83.018z M228.925,83.015
		c0,1.627,0.155,2.717,0.466,3.271c0.312,0.553,0.709,0.83,1.194,0.83c0.459,0,0.842-0.28,1.15-0.841s0.463-1.647,0.463-3.261
		c0-1.631-0.155-2.723-0.466-3.274c-0.312-0.551-0.714-0.827-1.208-0.827c-0.454,0-0.834,0.28-1.141,0.841
		C229.078,80.314,228.925,81.401,228.925,83.015z"/>
	<path d="M233.794,87.96l3.153-10.023h1.184l3.358,10.023h-1.244l-0.954-3.039h-3.452l-0.89,3.039H233.794z M236.154,83.843h2.798
		l-0.854-2.775c-0.265-0.852-0.458-1.545-0.581-2.078c-0.106,0.643-0.256,1.281-0.449,1.914L236.154,83.843z"/>
</g>
<g>
	<path d="M218.146,60.456l0.145-1.296l0.912,0.24l-0.096,1.056H218.146z M219.059,61.416l0.145,1.056l-0.912,0.288l-0.145-1.344
		H219.059z M218.579,58.056l0.384-1.008l0.864,0.48l-0.288,0.768L218.579,58.056z M219.491,63.624l0.336,0.768l-0.864,0.48
		l-0.384-1.008L219.491,63.624z M219.635,55.896l0.672-0.912l0.721,0.672l-0.576,0.72L219.635,55.896z M220.451,65.544l0.527,0.672
		l-0.672,0.672l-0.672-0.864L220.451,65.544z M221.268,67.848l0.672-0.672l0.527,0.432l-0.48,0.816L221.268,67.848z M222.035,53.448
		l0.48,0.864l-0.529,0.384l-0.672-0.672L222.035,53.448z M223.139,52.772l1.2-0.48l0.24,0.912l-0.96,0.432L223.139,52.772z
		 M223.619,68.28l0.96,0.384l-0.24,0.96l-1.2-0.528L223.619,68.28z M225.684,68.936l1.055,0.144v0.912l-1.295-0.096L225.684,68.936z
		 M225.491,51.998l1.296-0.194l-0.049,0.969l-1.008,0.144L225.491,51.998z M227.699,51.804l1.296,0.194l-0.24,0.919l-1.056-0.144
		V51.804z M227.699,69.086l1.056-0.095l0.24,0.905l-1.296,0.095V69.086z M230.146,52.296l1.008,0.384l-0.479,0.864l-0.768-0.336
		L230.146,52.296z M229.907,68.664l0.72-0.288l0.48,0.864l-1.008,0.384L229.907,68.664z M232.259,53.352l0.96,0.672l-0.672,0.672
		l-0.768-0.528L232.259,53.352z M231.779,67.752l0.72-0.576l0.672,0.72l-0.912,0.672L231.779,67.752z M234.755,55.704l-0.864,0.48
		l-0.432-0.528l0.721-0.672L234.755,55.704z M234.131,66.888l-0.672-0.672l0.432-0.528l0.816,0.48L234.131,66.888z M235.379,56.856
		l0.528,1.2l-0.96,0.192l-0.385-0.912L235.379,56.856z M234.563,64.584l0.385-0.96l0.912,0.24l-0.48,1.2L234.563,64.584z
		 M235.234,62.472l0.145-1.008l0.96-0.048l-0.192,1.296L235.234,62.472z M236.195,59.16l0.144,1.296h-0.96l-0.096-1.056
		L236.195,59.16z"/>
</g>
<g>
	<path d="M224.669,45.873c0-1.392,1.2-2.208,2.376-2.208s2.376,0.816,2.376,2.208c0,1.392-1.2,2.256-2.376,2.256
		S224.669,47.265,224.669,45.873z M227.045,47.361c0.769,0,1.296-0.696,1.296-1.488s-0.527-1.44-1.296-1.44
		c-0.768,0-1.296,0.648-1.296,1.44S226.277,47.361,227.045,47.361z"/>
</g>
<g>
	<path d="M113.099,54.252c0,1.554-1.092,2.562-2.52,2.562c-1.386,0-2.478-1.008-2.478-2.562c0-1.47,1.092-2.52,2.478-2.52
		C112.007,51.732,113.099,52.782,113.099,54.252z M113.099,67.902c0,1.554-1.092,2.562-2.52,2.562c-1.386,0-2.478-1.008-2.478-2.562
		c0-1.47,1.092-2.52,2.478-2.52C112.007,65.382,113.099,66.432,113.099,67.902z"/>
</g>
<g>
	<path d="M113.099,126.252c0,1.554-1.092,2.563-2.52,2.563c-1.386,0-2.478-1.009-2.478-2.563c0-1.47,1.092-2.52,2.478-2.52
		C112.007,123.732,113.099,124.782,113.099,126.252z M113.099,139.902c0,1.554-1.092,2.562-2.52,2.562
		c-1.386,0-2.478-1.008-2.478-2.562c0-1.471,1.092-2.521,2.478-2.521C112.007,137.382,113.099,138.432,113.099,139.902z"/>
</g>
</svg>
